<?xml version="1.0" encoding="utf-8"?>
<!-- Generator: Adobe Illustrator 23.0.0, SVG Export Plug-In . SVG Version: 6.00 Build 0)  -->
<svg version="1.1" id="Layer_1" xmlns="http://www.w3.org/2000/svg" xmlns:xlink="http://www.w3.org/1999/xlink" x="0px" y="0px"
	 viewBox="0 0 337 192" style="enable-background:new 0 0 337 192;" xml:space="preserve">
<style type="text/css">
	.st0{display:none;fill:#ED5145;}
	.st1{display:none;fill:#F75C54;}
	.st2{display:none;fill:#F29F26;}
	.st3{display:none;fill:#F9A83D;}
	.st4{display:none;fill:#58C445;}
	.st5{display:none;fill:#6AD354;}
	.st6{display:none;fill:#83D4ED;}
	.st7{display:none;fill:#9FDEF7;}
	.st8{fill:#ffffff;}
</style>
<path class="st0" d="M173.9,39.2c-103.6,0-188.4,80.4-195.5,182.3c0.3,0.1,0.6,0.1,0.8,0.2c0-0.6,0-1.2,0-1.8
	c0-29.9,24.2-54.1,54.1-54.1c25.7,0,47.3,18,52.7,42.1c3.2-1.1,6.7-1.7,10.3-1.7c3.1,0,6.1,0.4,8.9,1.2c0,0,0,0,0,0
	c11-27.2,37.6-46.5,68.8-46.5c30.1,0,56.1,18,67.7,43.8c0,0,0,0,0,0.1c12.7-18.6,34-30.8,58.2-30.8c36.9,0,67.2,28.4,70.1,64.6
	c0-1.2,0-2.3,0-3.5C369.8,126.9,282.1,39.2,173.9,39.2z"/>
<path class="st1" d="M173.9,39.2c-8.2,0-16.3,0.5-24.2,1.5c-7.2,18.3-11.1,38.2-11.1,59.1c0,22.9,4.8,44.8,13.4,64.5
	c6.9-2.2,14.3-3.3,22-3.3c30.1,0,56.1,18,67.7,43.8c0,0,0,0,0,0.1c12.7-18.6,34-30.8,58.2-30.8c36.9,0,67.2,28.4,70.1,64.6
	c0-1.2,0-2.3,0-3.5C369.8,126.9,282.1,39.2,173.9,39.2z"/>
<path class="st2" d="M261.5,106.8c-24.9-17.1-55.1-27.1-87.6-27.1c-60.9,0-113.6,35-139.1,86.1c25.1,0.7,45.8,18.4,51.2,42.1
	c3.2-1.1,6.7-1.7,10.3-1.7c3.1,0,6.1,0.4,8.9,1.2c0,0,0,0,0,0c11-27.2,37.6-46.5,68.8-46.5c30.1,0,56.1,18,67.7,43.8c0,0,0,0,0,0.1
	c12.7-18.6,34-30.8,58.2-30.8c6.2,0,12.3,0.8,18.1,2.4c-7.9-19.3-19.6-36.7-34.1-51.2"/>
<path class="st3" d="M283.6,125.2l-22.1-18.4c-24.9-17.1-55.1-27.1-87.6-27.1c-11.9,0-23.4,1.4-34.6,3.9c-0.5,5.3-0.8,10.7-0.8,16.1
	c0,22.9,4.8,44.8,13.4,64.5c6.9-2.2,14.3-3.3,22-3.3c30.1,0,56.1,18,67.7,43.8c0,0,0,0,0,0.1c12.7-18.6,34-30.8,58.2-30.8
	c6.2,0,12.3,0.8,18.1,2.4C309.8,157.1,298.2,139.7,283.6,125.2z"/>
<path class="st4" d="M173.9,121.7c-44.2,0-82.6,25.1-101.7,61.8c6.7,7,11.6,15.7,13.8,25.5c3.2-1.1,6.7-1.7,10.3-1.7
	c3.1,0,6.1,0.4,8.9,1.2c0,0,0,0,0,0c11-27.2,37.6-46.5,68.8-46.5c30.1,0,56.1,18,67.7,43.8c0,0-0.1,0.1-0.1,0.1
	c7.9-11.6,19.1-20.7,32.3-25.9C254.1,145.3,216.7,121.7,173.9,121.7z"/>
<path class="st5" d="M173.9,121.7c-11.6,0-22.8,1.7-33.3,4.9c2.2,13.6,6,26.6,11.3,38.8c6.9-2.2,14.3-3.3,22-3.3
	c30.1,0,56.1,18,67.7,43.8c0,0-0.1,0.1-0.1,0.1c7.9-11.6,19.1-20.7,32.3-25.9C254.1,145.3,216.7,121.7,173.9,121.7z"/>
<path class="st6" d="M82.2,299.1h34.8c-0.1-1.4-0.2-2.8-0.2-4.2c0-29.2,23.7-52.9,52.9-52.9c0.2,0,0.4,0,0.6,0
	c-6.3-14.3-20.6-24.3-37.2-24.3c-3.5,0-7,0.5-10.2,1.3c-5.9-8.5-15.6-14-26.7-14c-3.6,0-7,0.6-10.3,1.7c-5.4-24.1-27-42.1-52.7-42.1
	c-29.9,0-54.1,24.2-54.1,54.1c0,0.6,0,1.2,0,1.8c-3.8-1.2-7.8-1.8-12-1.8c-22.2,0-40.2,18-40.2,40.2c0,22.2,18,40.2,40.2,40.2h86.5"
	/>
<path class="st7" d="M133.1,217.8c-3.5,0-7,0.5-10.2,1.3c-5.9-8.5-15.6-14-26.7-14c-3.6,0-7,0.6-10.3,1.7
	c-5.4-24.1-27-42.1-52.7-42.1c-3.4,0-6.8,0.3-10,0.9c-7.4,13.8-11.6,29.5-11.6,46.2c0,38.2,21.9,71.2,53.8,87.3h16.7h34.8
	c-0.1-1.4-0.2-2.8-0.2-4.2c0-29.2,23.7-52.9,52.9-52.9c0.2,0,0.4,0,0.6,0C164,227.8,149.7,217.8,133.1,217.8z"/>
<path class="st8" d="M263.1,184.8h13.3c29.1,0,52.7-23.6,52.7-52.7c0-29.1-23.6-52.7-52.7-52.7c-5.5,0-10.8,0.8-15.8,2.4
	c0-0.8,0.1-1.6,0.1-2.4c0-39.1-31.7-70.8-70.8-70.8c-33.7,0-61.9,23.6-69.1,55.2c-4.2-1.4-8.8-2.2-13.5-2.2
	c-14.5,0-27.3,7.3-34.9,18.3c-4.3-1.1-8.8-1.7-13.4-1.7c-29.4,0-53.3,23.9-53.3,53.3s23.9,53.3,53.3,53.3h174.3"/>
</svg>
