<?xml version="1.0" encoding="utf-8"?>
<!-- Generator: Adobe Illustrator 23.0.0, SVG Export Plug-In . SVG Version: 6.00 Build 0)  -->
<svg version="1.1" id="Layer_1" xmlns="http://www.w3.org/2000/svg" xmlns:xlink="http://www.w3.org/1999/xlink" x="0px" y="0px"
	 viewBox="0 0 1301.8 151.6" style="enable-background:new 0 0 1301.8 151.6;" xml:space="preserve">
<style type="text/css">
	.st0{fill:#6A9950;}
	.st1{fill:#65934D;}
	.st2{fill:url(#SVGID_1_);}
	.st3{fill:url(#SVGID_2_);}
	.st4{fill:url(#SVGID_3_);}
	.st5{fill:#3D783C;}
</style>
<image style="display:none;overflow:visible;" width="1300" height="799" xlink:href="9F31971FD238EFE7.jpg"  transform="matrix(1 0 0 1 -6.6519 -531.7971)">
</image>
<polygon class="st0" points="0,47.7 9.7,49.6 96.1,23.8 258.6,11.5 395.4,49.6 430.4,49.6 593.9,15.6 692.6,17.7 778,34.1 
	876.8,15.6 940.5,16.6 1127.7,42.4 1201.8,36.2 1301.9,42.3 1301.6,123 0,114.6 "/>
<polygon class="st1" points="1301.7,28.4 1190.6,20.9 1117.3,23.8 798.4,35.3 591.5,45.3 391.8,48.2 314.2,52.5 314.2,131.5 
	1301.8,130.1 "/>
<linearGradient id="SVGID_1_" gradientUnits="userSpaceOnUse" x1="327.9117" y1="-560.3337" x2="342.5781" y2="1169.2345">
	<stop  offset="0.2614" style="stop-color:#A6C248"/>
	<stop  offset="0.6179" style="stop-color:#809919"/>
</linearGradient>
<polygon class="st2" points="0,49.9 123.4,46.1 291.7,35.2 409.8,62.4 542.8,65.1 637.9,96.3 667.7,130.3 667.7,151.5 0,151.6 "/>
<linearGradient id="SVGID_2_" gradientUnits="userSpaceOnUse" x1="835.1389" y1="-413.0591" x2="846.5663" y2="934.5471">
	<stop  offset="0" style="stop-color:#A6C248"/>
	<stop  offset="1" style="stop-color:#809919"/>
</linearGradient>
<polygon class="st3" points="401.6,123.9 475,94 583.6,72.3 617.5,61.5 711.2,56 833.3,83.2 905.3,79.1 1012.5,66.9 1072.2,56 
	1172.7,47.9 1289.4,49.2 1301.8,55.7 1301.8,139.9 536,145.6 377.2,145.6 "/>
<linearGradient id="SVGID_3_" gradientUnits="userSpaceOnUse" x1="650.4022" y1="27.6179" x2="651.196" y2="181.0441">
	<stop  offset="5.524839e-02" style="stop-color:#A6C248"/>
	<stop  offset="0.6386" style="stop-color:#819A1A"/>
	<stop  offset="1" style="stop-color:#809919"/>
</linearGradient>
<polygon class="st4" points="0,102.6 49.3,95.7 183.6,92.9 287.4,106.7 407.9,95.7 569.9,98.4 687.6,120.6 761,130.3 870.4,112.3 
	959,105.4 1007.4,84.6 1170.8,80.4 1301.8,89.7 1301.8,151.5 0,151.6 "/>
<polygon class="st5" points="256.9,24.7 236.4,118 277.4,118 "/>
<polygon class="st5" points="225.2,62.1 211.6,112.8 238.9,112.8 "/>
<polygon class="st5" points="1117.6,24.4 1134.6,90 1102.5,90.5 "/>
<polygon class="st5" points="971.3,23.6 980.5,73.1 963.6,73.4 "/>
<polygon class="st5" points="1060.4,12.1 1069.6,61.6 1052.7,61.8 "/>
<polygon class="st5" points="1051,12.1 1060.2,61.6 1043.3,61.8 "/>
<polygon class="st5" points="1017,17.6 1026.2,67.2 1009.3,67.4 "/>
<polygon class="st5" points="991.3,25.4 1000.5,74.9 983.6,75.2 "/>
<polygon class="st5" points="943.9,27.1 953.1,76.6 936.2,76.9 "/>
<polygon class="st5" points="916.5,36.5 925.7,86 908.8,86.2 "/>
<polygon class="st5" points="1038.2,17.6 1047.4,67.2 1030.5,67.4 "/>
<polygon class="st5" points="1072.8,10.4 1082,59.9 1065.1,60.2 "/>
<polygon class="st5" points="1144.4,9.7 1163.5,89.7 1127.7,90.2 "/>
<polygon class="st5" points="1162.1,24.8 1178.5,89.5 1147.8,89.9 "/>
<polygon class="st5" points="1186.4,46 1199.8,94.9 1174.4,95.3 "/>
<polygon class="st5" points="482.9,17.9 490.8,50.8 475.1,50.8 "/>
<polygon class="st5" points="469,12.9 478.4,51.9 459.6,51.9 "/>
<polygon class="st5" points="459.4,17.4 467.4,51.9 451.3,51.9 "/>
<polygon class="st5" points="446.8,28.8 453.4,57.8 440.3,57.8 "/>
<polygon class="st5" points="438.3,19.2 444.9,48.2 431.8,48.2 "/>
<polygon class="st5" points="424.5,21.8 431,50.8 417.9,50.8 "/>
<polygon class="st5" points="415.5,25.3 422.1,54.3 409,54.3 "/>
<polygon class="st5" points="403.2,22.9 409.7,51.9 396.6,51.9 "/>
<polygon class="st5" points="381.4,19.3 387.9,48.3 374.8,48.3 "/>
<polygon class="st5" points="369.8,21.1 376.4,50.2 363.3,50.2 "/>
</svg>
